<?xml version="1.0" encoding="utf-8"?>
<!-- Generator: Adobe Illustrator 24.0.1, SVG Export Plug-In . SVG Version: 6.00 Build 0)  -->
<svg height="48" viewBox="0 0 144 48" width="144" xmlns="http://www.w3.org/2000/svg">
<style type="text/css">
	.st0{fill:#A6A6A6;}
	.st1{fill:#FFFFFF;}
</style>
<path class="st0" d="M132.5,0H11.5c-0.4,0-0.9,0-1.3,0C9.8,0,9.4,0,9.1,0C8.2,0,7.4,0.1,6.6,0.2C5.8,0.4,5.1,0.6,4.4,1
	C3.6,1.3,3,1.8,2.4,2.4C1.8,3,1.4,3.6,1,4.3C0.6,5.1,0.4,5.8,0.2,6.6C0.1,7.4,0,8.2,0,9c0,0.4,0,0.7,0,1.1v27.7c0,0.4,0,0.7,0,1.1
	c0,0.8,0.1,1.6,0.2,2.4c0.1,0.8,0.4,1.6,0.8,2.3c0.4,0.7,0.8,1.4,1.4,1.9c0.6,0.6,1.2,1,1.9,1.4c0.7,0.4,1.5,0.6,2.3,0.8
	C7.4,47.9,8.2,48,9.1,48c0.4,0,0.7,0,1.1,0c0.4,0,0.9,0,1.3,0h121.1c0.4,0,0.9,0,1.3,0c0.4,0,0.7,0,1.1,0c0.8,0,1.6-0.1,2.4-0.2
	c0.8-0.1,1.6-0.4,2.3-0.8c0.7-0.4,1.4-0.8,1.9-1.4c0.6-0.6,1.1-1.2,1.4-1.9c0.4-0.7,0.6-1.5,0.7-2.3c0.1-0.8,0.2-1.6,0.2-2.4
	c0-0.4,0-0.7,0-1.1c0-0.4,0-0.9,0-1.3V11.4c0-0.4,0-0.9,0-1.3c0-0.4,0-0.7,0-1.1c0-0.8-0.1-1.6-0.2-2.4c-0.1-0.8-0.4-1.6-0.7-2.3
	c-0.7-1.4-1.9-2.6-3.4-3.4c-0.7-0.4-1.5-0.6-2.3-0.8c-0.8-0.1-1.6-0.2-2.4-0.2c-0.4,0-0.7,0-1.1,0C133.4,0,133,0,132.5,0L132.5,0z"
	/>
<path d="M10.2,46.9c-0.4,0-0.7,0-1.1,0c-0.8,0-1.5-0.1-2.2-0.2c-0.7-0.1-1.4-0.3-2-0.7c-0.6-0.3-1.2-0.7-1.7-1.2
	c-0.5-0.5-0.9-1.1-1.2-1.7c-0.3-0.6-0.5-1.3-0.7-2c-0.1-0.7-0.2-1.5-0.2-2.2c0-0.3,0-1.1,0-1.1V10.1c0,0,0-0.8,0-1.1
	c0-0.8,0.1-1.5,0.2-2.2c0.1-0.7,0.3-1.4,0.7-2c0.3-0.6,0.7-1.2,1.2-1.7c0.5-0.5,1.1-0.9,1.7-1.2c0.6-0.3,1.3-0.5,2-0.7
	c0.7-0.1,1.5-0.2,2.3-0.2l1.1,0h123.7l1.1,0c0.7,0,1.5,0.1,2.2,0.2c0.7,0.1,1.4,0.3,2,0.7c1.2,0.6,2.3,1.7,2.9,2.9
	c0.3,0.6,0.5,1.3,0.6,2c0.1,0.7,0.2,1.5,0.2,2.3c0,0.3,0,0.7,0,1.1c0,0.4,0,0.9,0,1.3v25.1c0,0.4,0,0.9,0,1.3c0,0.4,0,0.7,0,1.1
	c0,0.7-0.1,1.5-0.2,2.2c-0.1,0.7-0.3,1.4-0.6,2c-0.3,0.6-0.7,1.2-1.2,1.7c-0.5,0.5-1.1,0.9-1.7,1.2c-0.6,0.3-1.3,0.5-2,0.7
	c-0.7,0.1-1.5,0.2-2.2,0.2c-0.4,0-0.7,0-1.1,0l-1.3,0L10.2,46.9z"/>
<g>
	<path class="st1" d="M29.8,24.4c0-2,1.1-3.9,2.8-5c-1.1-1.6-2.9-2.5-4.8-2.6c-2-0.2-4,1.2-5,1.2c-1,0-2.6-1.2-4.3-1.1
		c-2.2,0.1-4.3,1.3-5.4,3.3c-2.3,4-0.6,9.9,1.6,13.2c1.1,1.6,2.4,3.4,4.1,3.3c1.7-0.1,2.3-1.1,4.3-1.1c2,0,2.6,1.1,4.3,1
		c1.8,0,2.9-1.6,4-3.2c0.8-1.1,1.4-2.4,1.8-3.7C31.2,28.7,29.8,26.7,29.8,24.4z"/>
	<path class="st1" d="M26.5,14.7c1-1.2,1.5-2.7,1.3-4.2c-1.5,0.2-2.9,0.9-3.9,2c-1,1.1-1.5,2.6-1.4,4C24.1,16.5,25.6,15.8,26.5,14.7
		z"/>
	<path class="st1" d="M50.9,32.6h-5.7l-1.4,4h-2.4l5.4-14.9h2.5l5.4,14.9h-2.5L50.9,32.6z M45.8,30.7h4.5l-2.2-6.5H48L45.8,30.7z"/>
	<path class="st1" d="M66.4,31.2c0,3.4-1.8,5.5-4.5,5.5c-1.4,0.1-2.7-0.7-3.4-1.9h-0.1v5.4h-2.2V25.7h2.2v1.8h0c0.7-1.2,2-2,3.5-1.9
		C64.6,25.6,66.4,27.8,66.4,31.2z M64.1,31.2c0-2.2-1.1-3.6-2.9-3.6c-1.7,0-2.9,1.5-2.9,3.6c0,2.2,1.1,3.7,2.9,3.7
		C62.9,34.8,64.1,33.4,64.1,31.2z"/>
	<path class="st1" d="M78.4,31.2c0,3.4-1.8,5.5-4.5,5.5c-1.4,0.1-2.7-0.7-3.4-1.9h-0.1v5.4h-2.2V25.7h2.2v1.8h0c0.7-1.2,2-2,3.5-1.9
		C76.5,25.6,78.4,27.8,78.4,31.2z M76.1,31.2c0-2.2-1.1-3.6-2.9-3.6c-1.7,0-2.9,1.5-2.9,3.6c0,2.2,1.1,3.7,2.9,3.7
		C74.9,34.8,76.1,33.4,76.1,31.2z"/>
	<path class="st1" d="M86.3,32.4c0.2,1.5,1.6,2.4,3.6,2.4c1.9,0,3.2-1,3.2-2.3c0-1.2-0.8-1.8-2.8-2.3l-1.9-0.5c-2.7-0.7-4-1.9-4-4
		c0-2.6,2.2-4.3,5.4-4.3c3.2,0,5.3,1.8,5.4,4.3H93c-0.1-1.5-1.4-2.4-3.2-2.4s-3,0.9-3,2.2c0,1.1,0.8,1.7,2.7,2.1l1.6,0.4
		c3.1,0.7,4.3,2,4.3,4.1c0,2.8-2.2,4.5-5.8,4.5c-3.3,0-5.6-1.7-5.7-4.4L86.3,32.4z"/>
	<path class="st1" d="M100.3,23.2v2.6h2.1v1.8h-2.1v6c0,0.9,0.4,1.4,1.3,1.4c0.2,0,0.5,0,0.7-0.1v1.8c-0.4,0.1-0.8,0.1-1.2,0.1
		c-2.2,0-3.1-0.8-3.1-2.9v-6.2h-1.6v-1.8H98v-2.6H100.3z"/>
	<path class="st1" d="M103.6,31.2c0-3.4,2-5.6,5.2-5.6c3.2,0,5.2,2.1,5.2,5.6c0,3.4-2,5.6-5.2,5.6C105.6,36.7,103.6,34.6,103.6,31.2
		z M111.6,31.2c0-2.3-1.1-3.7-2.9-3.7s-2.9,1.4-2.9,3.7c0,2.4,1.1,3.7,2.9,3.7S111.6,33.5,111.6,31.2L111.6,31.2z"/>
	<path class="st1" d="M115.7,25.7h2.1v1.8h0.1c0.3-1.2,1.4-2,2.6-2c0.3,0,0.5,0,0.8,0.1v2.1c-0.3-0.1-0.7-0.1-1-0.1
		c-1.2-0.1-2.3,0.9-2.3,2.2c0,0.1,0,0.2,0,0.3v6.4h-2.2L115.7,25.7z"/>
	<path class="st1" d="M131.6,33.4c-0.3,2-2.2,3.3-4.7,3.3c-3.2,0-5.1-2.1-5.1-5.5c0-3.4,2-5.6,5-5.6c3,0,4.9,2.1,4.9,5.4v0.8h-7.7
		v0.1c-0.1,1.6,1,2.9,2.6,3.1c0.1,0,0.2,0,0.4,0c1.1,0.1,2.1-0.5,2.5-1.5L131.6,33.4z M124.1,30.2h5.4c0.1-1.4-1-2.7-2.5-2.8
		c-0.1,0-0.1,0-0.2,0C125.3,27.4,124.1,28.6,124.1,30.2C124.1,30.1,124.1,30.2,124.1,30.2z"/>
	<path class="st1" d="M42.9,17.6v-7.2h2.9c1.3,0,2.2,0.7,2.2,1.8c0,0.7-0.5,1.4-1.3,1.5v0.1c0.9,0,1.6,0.8,1.6,1.7
		c0,1.3-0.9,2-2.5,2L42.9,17.6z M44,13.5h1.3c1,0,1.5-0.4,1.5-1c0-0.7-0.5-1-1.3-1H44V13.5z M45.7,16.7c1,0,1.5-0.4,1.5-1.2
		c0-0.7-0.6-1.1-1.6-1.1H44v2.3H45.7z"/>
	<path class="st1" d="M49.5,16.1c0-1,0.7-1.5,2-1.6l1.5-0.1v-0.5c0-0.6-0.4-0.9-1.1-0.9c-0.6,0-1,0.2-1.1,0.6h-1
		c0.1-0.9,1-1.5,2.2-1.5c1.4,0,2.1,0.7,2.1,1.8v3.7h-1v-0.8h-0.1c-0.3,0.6-1,0.9-1.6,0.8c-0.9,0.1-1.7-0.6-1.8-1.5
		C49.5,16.2,49.5,16.2,49.5,16.1z M53,15.6v-0.5l-1.3,0.1c-0.7,0-1.1,0.3-1.1,0.8c0,0.5,0.4,0.8,1,0.8C52.3,16.9,52.9,16.4,53,15.6
		C53,15.7,53,15.7,53,15.6z"/>
	<path class="st1" d="M55.6,10.6c0-0.4,0.3-0.7,0.7-0.7c0.4,0,0.7,0.3,0.7,0.6c0,0.4-0.3,0.7-0.7,0.7c0,0,0,0,0,0
		C55.9,11.3,55.6,11,55.6,10.6C55.6,10.7,55.6,10.6,55.6,10.6z M55.7,12.2h1.1v5.4h-1.1L55.7,12.2z"/>
	<path class="st1" d="M60.5,15.7l-1.2,1.9h-1.2l1.8-2.7l-1.8-2.7h1.2l1.2,1.9h0.1l1.2-1.9h1.2l-1.8,2.7l1.8,2.7h-1.2L60.5,15.7
		L60.5,15.7z"/>
	<path class="st1" d="M63.9,16.1c0-1,0.7-1.5,2-1.6l1.5-0.1v-0.5c0-0.6-0.4-0.9-1.1-0.9c-0.6,0-1,0.2-1.1,0.6h-1
		c0.1-0.9,1-1.5,2.2-1.5c1.4,0,2.1,0.7,2.1,1.8v3.7h-1v-0.8h-0.1c-0.3,0.6-1,0.9-1.6,0.8c-0.9,0.1-1.7-0.6-1.8-1.5
		C63.9,16.2,63.9,16.2,63.9,16.1z M67.4,15.6v-0.5L66,15.3c-0.7,0-1.1,0.3-1.1,0.8c0,0.5,0.4,0.8,1,0.8
		C66.7,16.9,67.3,16.4,67.4,15.6C67.4,15.7,67.4,15.7,67.4,15.6z"/>
	<path class="st1" d="M70.1,12.2h1v0.8h0.1c0.2-0.6,0.8-1,1.5-0.9c0.2,0,0.3,0,0.5,0v1.1c-0.2,0-0.4-0.1-0.6-0.1
		c-0.7-0.1-1.3,0.5-1.4,1.1c0,0,0,0.1,0,0.1v3.2h-1.1L70.1,12.2z"/>
	<path class="st1" d="M77.3,12.2h1v0.9h0.1c0.3-0.6,0.9-1,1.6-1c1-0.1,1.8,0.7,1.9,1.6c0,0.1,0,0.3,0,0.4v3.5h-1.1v-3.2
		c0-0.9-0.4-1.3-1.2-1.3c-0.7,0-1.3,0.5-1.3,1.2c0,0.1,0,0.1,0,0.2v3.2h-1.1L77.3,12.2z"/>
	<path class="st1" d="M83.2,16.1c0-1,0.7-1.5,2-1.6l1.5-0.1v-0.5c0-0.6-0.4-0.9-1.1-0.9c-0.6,0-1,0.2-1.1,0.6h-1
		c0.1-0.9,1-1.5,2.2-1.5c1.4,0,2.1,0.7,2.1,1.8v3.7h-1v-0.8h-0.1c-0.3,0.6-1,0.9-1.6,0.8c-0.9,0.1-1.7-0.6-1.8-1.5
		C83.2,16.2,83.2,16.2,83.2,16.1z M86.7,15.6v-0.5l-1.3,0.1c-0.7,0-1.1,0.3-1.1,0.8c0,0.5,0.4,0.8,1,0.8
		C86,16.9,86.6,16.4,86.7,15.6C86.7,15.7,86.7,15.7,86.7,15.6L86.7,15.6z"/>
</g>
</svg>
